<svg width="242" height="242" viewBox="0 0 242 242" fill="none" xmlns="http://www.w3.org/2000/svg">
<g clip-path="url(#clip0_0_836)">
<circle cx="121" cy="121" r="121" fill="white"/>
<path d="M48.72 131C48.72 131.064 48.848 131.021 49.104 130.872C49.36 130.701 49.584 130.381 49.776 129.912C49.9893 129.421 50.096 128.717 50.096 127.8V112.088C50.096 111.213 49.9893 110.552 49.776 110.104C49.584 109.635 49.36 109.315 49.104 109.144C48.848 108.973 48.72 108.92 48.72 108.984H60.304V112.184C59.92 110.904 58.768 110.264 56.848 110.264H52.4V119.352H57.904C58.3307 119.352 58.6933 119.288 58.992 119.16C59.2907 119.011 59.5147 118.861 59.664 118.712C59.8133 118.563 59.8987 118.467 59.92 118.424V121.528C59.8987 121.485 59.8133 121.389 59.664 121.24C59.5147 121.091 59.2907 120.952 58.992 120.824C58.7147 120.696 58.3627 120.632 57.936 120.632H52.4V129.72H57.392C58.352 129.72 59.1733 129.528 59.856 129.144C60.56 128.739 61.0613 128.227 61.36 127.608L60.784 131H48.72ZM81.0723 131C81.4563 130.936 81.6483 130.744 81.6483 130.424C81.6483 130.04 81.4883 129.613 81.1683 129.144C80.8483 128.653 80.6669 128.376 80.6243 128.312L76.1443 121.4L71.1203 128.12C70.8003 128.547 70.5443 128.931 70.3523 129.272C70.1816 129.592 70.0963 129.891 70.0963 130.168C70.0963 130.637 70.4376 130.915 71.1203 131H66.3203C66.3203 131.043 66.4483 130.989 66.7043 130.84C66.9603 130.691 67.3229 130.392 67.7923 129.944C68.2829 129.475 68.8696 128.781 69.5523 127.864L75.3763 120.152L70.2243 112.184C69.6269 111.267 69.0936 110.573 68.6243 110.104C68.1549 109.635 67.7709 109.325 67.4723 109.176C67.1736 109.005 67.0243 108.941 67.0243 108.984H72.3683C71.9629 109.069 71.7603 109.272 71.7603 109.592C71.7603 109.912 71.9949 110.435 72.4643 111.16L76.9123 118.072L81.5522 111.928C82.2136 111.053 82.5443 110.349 82.5443 109.816C82.5443 109.325 82.2243 109.048 81.5843 108.984H86.3523C86.3523 108.963 86.2136 109.016 85.9363 109.144C85.6803 109.251 85.3389 109.496 84.9123 109.88C84.5069 110.243 84.0376 110.787 83.5043 111.512L77.6803 119.288L82.8323 127.288C83.5149 128.355 84.1229 129.165 84.6562 129.72C85.1896 130.253 85.6163 130.616 85.9363 130.808C86.2563 130.979 86.4163 131.043 86.4163 131H81.0723ZM106.075 114.936C106.075 116.173 105.776 117.283 105.179 118.264C104.603 119.224 103.771 119.981 102.683 120.536C101.595 121.091 100.315 121.368 98.8425 121.368C97.9465 121.368 96.9865 121.272 95.9625 121.08V128.056C95.9625 128.888 96.0692 129.528 96.2825 129.976C96.4958 130.403 96.7305 130.691 96.9865 130.84C97.2425 130.989 97.3705 131.043 97.3705 131H92.2825C92.2825 131.043 92.4105 130.989 92.6665 130.84C92.9225 130.691 93.1465 130.403 93.3385 129.976C93.5518 129.549 93.6585 128.909 93.6585 128.056V112.024C93.6585 111.171 93.5518 110.52 93.3385 110.072C93.1465 109.624 92.9225 109.325 92.6665 109.176C92.4105 109.005 92.2825 108.941 92.2825 108.984H98.5545C99.6425 108.984 100.539 109.059 101.243 109.208C101.947 109.336 102.565 109.539 103.099 109.816C104.059 110.307 104.795 111.021 105.307 111.96C105.819 112.877 106.075 113.869 106.075 114.936ZM103.611 115.352C103.611 113.837 103.141 112.611 102.203 111.672C101.264 110.733 100.016 110.264 98.4585 110.264H95.9625V119.832C96.8798 120.003 97.8398 120.088 98.8425 120.088C100.336 120.088 101.499 119.661 102.331 118.808C103.184 117.933 103.611 116.781 103.611 115.352ZM113.19 111.96C113.19 111.107 113.083 110.467 112.87 110.04C112.678 109.592 112.454 109.293 112.198 109.144C111.942 108.995 111.814 108.941 111.814 108.984H116.902C116.902 108.941 116.774 108.995 116.518 109.144C116.262 109.293 116.027 109.592 115.814 110.04C115.6 110.467 115.494 111.107 115.494 111.96V129.72H120.742C121.702 129.72 122.523 129.528 123.206 129.144C123.91 128.739 124.411 128.227 124.71 127.608L124.134 131H111.814C111.814 131.064 111.942 131.021 112.198 130.872C112.454 130.701 112.678 130.381 112.87 129.912C113.083 129.421 113.19 128.717 113.19 127.8V111.96ZM128.829 120.248C128.829 117.987 129.309 115.971 130.269 114.2C131.251 112.429 132.616 111.053 134.365 110.072C136.136 109.091 138.173 108.6 140.477 108.6C142.397 108.6 144.189 109.027 145.853 109.88C147.539 110.712 148.883 111.971 149.885 113.656C150.909 115.341 151.421 117.368 151.421 119.736C151.421 121.997 150.931 124.013 149.949 125.784C148.989 127.555 147.624 128.931 145.853 129.912C144.104 130.893 142.077 131.384 139.773 131.384C137.853 131.384 136.051 130.968 134.365 130.136C132.701 129.283 131.357 128.013 130.333 126.328C129.331 124.643 128.829 122.616 128.829 120.248ZM148.861 120.216C148.861 118.275 148.456 116.525 147.645 114.968C146.856 113.389 145.757 112.163 144.349 111.288C142.963 110.392 141.395 109.944 139.645 109.944C138.045 109.944 136.616 110.349 135.357 111.16C134.12 111.971 133.149 113.123 132.445 114.616C131.741 116.088 131.389 117.805 131.389 119.768C131.389 121.709 131.784 123.469 132.573 125.048C133.384 126.605 134.483 127.832 135.869 128.728C137.277 129.603 138.856 130.04 140.605 130.04C142.205 130.04 143.624 129.635 144.861 128.824C146.12 128.013 147.101 126.872 147.805 125.4C148.509 123.907 148.861 122.179 148.861 120.216ZM164.121 119.928C165.102 119.928 165.955 119.704 166.681 119.256C167.406 118.787 167.95 118.189 168.313 117.464C168.697 116.717 168.889 115.939 168.889 115.128C168.889 114.296 168.707 113.517 168.345 112.792C168.003 112.045 167.47 111.437 166.745 110.968C166.019 110.499 165.134 110.264 164.089 110.264H161.369V128.056C161.369 128.909 161.475 129.56 161.689 130.008C161.902 130.435 162.137 130.723 162.393 130.872C162.649 131 162.777 131.043 162.777 131H157.689C157.689 131.043 157.817 130.989 158.073 130.84C158.329 130.691 158.553 130.403 158.745 129.976C158.958 129.549 159.065 128.909 159.065 128.056V112.056C159.065 111.181 158.958 110.52 158.745 110.072C158.553 109.603 158.329 109.293 158.073 109.144C157.817 108.973 157.689 108.92 157.689 108.984H164.025C165.689 108.984 167.054 109.261 168.121 109.816C169.209 110.349 169.987 111.053 170.457 111.928C170.947 112.781 171.193 113.72 171.193 114.744C171.193 115.597 170.99 116.44 170.585 117.272C170.179 118.083 169.593 118.797 168.825 119.416C168.078 120.013 167.203 120.429 166.201 120.664L165.689 120.76L171.321 127.928C172.067 128.76 172.686 129.4 173.177 129.848C173.667 130.296 174.019 130.595 174.233 130.744C174.467 130.893 174.606 130.979 174.649 131H170.905L162.201 119.928H164.121ZM179.533 131C179.533 131.064 179.661 131.021 179.917 130.872C180.173 130.701 180.397 130.381 180.589 129.912C180.802 129.421 180.909 128.717 180.909 127.8V112.088C180.909 111.213 180.802 110.552 180.589 110.104C180.397 109.635 180.173 109.315 179.917 109.144C179.661 108.973 179.533 108.92 179.533 108.984H191.117V112.184C190.733 110.904 189.581 110.264 187.661 110.264H183.213V119.352H188.717C189.143 119.352 189.506 119.288 189.805 119.16C190.103 119.011 190.327 118.861 190.477 118.712C190.626 118.563 190.711 118.467 190.733 118.424V121.528C190.711 121.485 190.626 121.389 190.477 121.24C190.327 121.091 190.103 120.952 189.805 120.824C189.527 120.696 189.175 120.632 188.749 120.632H183.213V129.72H188.205C189.165 129.72 189.986 129.528 190.669 129.144C191.373 128.739 191.874 128.227 192.173 127.608L191.597 131H179.533Z" fill="#0B0D17"/>
</g>
<defs>
<clipPath id="clip0_0_836">
<rect width="242" height="242" fill="white"/>
</clipPath>
</defs>
</svg>
